# xmcd
#
# Track frame offsets: 
#        183
#        31228
#        38925
#        54715
#        67330
#        81883
#        104120
#        128615
#        143555
#        153848
#        167525
#        184963
#        195630
#        209650
#
# Disc length: 2965 seconds
#
# Revision: 7
# Processed by: cddbd v1.5.2PL0 Copyright (c) Steve Scherf et al.
# Submitted via: ExactAudioCopy v0.99pb5
#
DISCID=cc0b930e
DTITLE=Andrew Lloyd Webber - Evita
DYEAR=1989
DGENRE=Musical
TTITLE0=Requiem For Evita - Oh What A Circus
TTITLE1=On This Night Of A Thousand Stars
TTITLE2=Buenos Aires
TTITLE3=I'd Be Surprisingly Good For You
TTITLE4=Another Suitcase In Another Hall
TTITLE5=A New Argentina
TTITLE6=Don't Cry For Me Argentina
TTITLE7=High, Flying Adored
TTITLE8=Rainbow High
TTITLE9=And The Money Kept Rolling In (And Out)
TTITLE10=Waltz For Eva And Che
TTITLE11=She Is A Diamond
TTITLE12=Eva's Final Broadcast
TTITLE13=Lament
EXTD=YEAR: 1989 ID3G: 77
EXTT0=
EXTT1=
EXTT2=
EXTT3=
EXTT4=
EXTT5=
EXTT6=
EXTT7=
EXTT8=
EXTT9=
EXTT10=
EXTT11=
EXTT12=
EXTT13=
PLAYORDER=
